<svg width="24" height="24" viewBox="0 0 24 24" fill="none" xmlns="http://www.w3.org/2000/svg">
<path d="M19.35 10.04C18.67 6.59 15.64 4 12 4C9.11 4 6.6 5.64 5.35 8.04C2.34 8.36 0 10.91 0 14C0 17.31 2.69 20 6 20H19C21.76 20 24 17.76 24 15C24 12.36 21.95 10.22 19.35 10.04ZM19 18H6C3.79 18 2 16.21 2 14C2 12.23 3.64 10.69 5.5 10.5L6.5 10.4L6.6 9.4C6.9 6.75 9.3 4.5 12 4.5C14.7 4.5 17.1 6.75 17.4 9.4L17.5 10.5L18.5 10.6C20.36 10.79 22 12.23 22 14C22 16.21 20.21 18 18 18H19ZM12 7L8 11H11V16H13V11H16L12 7Z" fill="#4D4D4D"/>
</svg>
