<svg width="24" height="24" viewBox="0 0 24 24" fill="none" xmlns="http://www.w3.org/2000/svg">
<path d="M17 20.41L18.59 19L17 17.59L15.59 19L17 20.41ZM20.07 8.93C21.88 7.12 21.88 4.23 20.07 2.42C18.26 0.61 15.37 0.61 13.56 2.42L12 4L10.44 2.44C8.63 0.63 5.74 0.63 3.93 2.44C2.12 4.25 2.12 7.14 3.93 8.95L5.5 10.5L12 17L18.5 10.5L20.07 8.93ZM12 15.17L6.91 10.09C5.72 8.9 5.72 6.99 6.91 5.8C8.1 4.61 10.01 4.61 11.2 5.8L12 6.59L12.8 5.79C13.99 4.6 15.9 4.6 17.09 5.79C18.28 6.98 18.28 8.89 17.09 10.08L12 15.17Z" fill="#4D4D4D"/>
</svg>
